<?xml version="1.0" standalone="no"?>
<!DOCTYPE svg PUBLIC "-//W3C//DTD SVG 20010904//EN"
 "http://www.w3.org/TR/2001/REC-SVG-20010904/DTD/svg10.dtd">
<svg version="1.0" xmlns="http://www.w3.org/2000/svg"
 width="512.000000pt" height="512.000000pt" viewBox="0 0 512.000000 512.000000"
 preserveAspectRatio="xMidYMid meet">

<g transform="translate(0.000000,512.000000) scale(0.100000,-0.100000)"
fill="#000000" stroke="none">
<path d="M775 4946 c-74 -18 -133 -48 -193 -95 l-53 -42 -69 10 c-169 27 -262
2 -289 -74 -22 -65 -8 -109 54 -174 29 -31 83 -74 118 -95 62 -38 65 -42 71
-86 10 -76 69 -185 134 -249 152 -148 358 -181 548 -89 l62 30 53 -17 c30 -8
86 -18 124 -21 60 -5 76 -2 114 18 53 28 81 75 81 137 0 64 -32 122 -106 190
-63 58 -64 59 -64 112 -1 290 -298 516 -585 445z m251 -181 c103 -50 165 -146
172 -265 4 -81 -18 -160 -58 -209 l-20 -24 -68 28 c-37 16 -160 75 -275 132
-204 102 -207 104 -201 131 26 109 123 203 238 233 54 14 156 2 212 -26z
m-603 -101 c17 -6 11 -44 -7 -44 -6 1 -24 12 -41 25 l-30 25 32 0 c17 0 38 -3
46 -6z m351 -420 c86 -41 156 -78 156 -81 0 -11 -124 6 -160 21 -50 21 -114
69 -139 105 -12 17 -20 31 -18 31 2 0 75 -34 161 -76z m576 -5 c27 -37 22 -43
-25 -35 -40 8 -39 6 -23 41 15 32 22 32 48 -6z"/>
<path d="M2480 4800 l0 -80 -80 0 -80 0 0 -80 0 -80 80 0 80 0 0 -80 0 -80 80
0 80 0 0 80 0 80 80 0 80 0 0 80 0 80 -80 0 -80 0 0 80 0 80 -80 0 -80 0 0
-80z m160 -160 l0 -80 -80 0 -80 0 0 80 0 80 80 0 80 0 0 -80z"/>
<path d="M1760 4560 l0 -80 80 0 80 0 0 80 0 80 -80 0 -80 0 0 -80z"/>
<path d="M3280 4320 l0 -80 80 0 80 0 0 80 0 80 -80 0 -80 0 0 -80z"/>
<path d="M2370 4229 c-477 -61 -886 -315 -1147 -711 -176 -267 -269 -586 -262
-900 l2 -107 -53 -58 c-120 -131 -286 -363 -378 -529 -142 -257 -208 -498
-182 -666 30 -197 156 -326 375 -384 96 -25 365 -25 520 0 201 33 475 110 711
201 l110 43 90 -24 c425 -114 898 -39 1274 204 391 252 669 700 717 1153 5 55
11 65 61 122 304 340 506 700 557 991 19 109 19 162 1 247 -37 173 -140 276
-326 326 -79 21 -331 24 -455 4 -129 -20 -320 -59 -465 -96 l-135 -34 -105 53
c-172 88 -327 136 -520 162 -114 15 -287 16 -390 3z m2063 -259 c316 -99 232
-569 -200 -1115 l-78 -100 -7 65 c-12 108 -48 260 -85 360 -99 264 -242 475
-451 662 l-53 47 38 11 c77 22 381 80 468 89 133 14 287 6 368 -19z m-921
-255 c35 -30 91 -87 126 -127 l63 -72 -43 -13 c-24 -7 -90 -20 -148 -28 -253
-37 -438 -108 -576 -221 -26 -21 -83 -85 -128 -143 -114 -147 -105 -143 -400
-152 -133 -4 -290 -13 -351 -19 -269 -27 -583 -83 -807 -144 l-120 -33 6 55
c11 96 14 101 60 112 22 6 124 37 226 69 257 82 354 100 697 125 119 8 212 72
304 208 102 150 147 176 324 188 127 9 241 34 349 74 66 25 263 123 311 155
17 11 33 20 37 20 4 1 35 -24 70 -54z m473 -897 c3 -35 8 -80 10 -100 l5 -38
-65 0 c-36 0 -101 -7 -143 -16 -164 -34 -295 -104 -441 -238 -207 -190 -204
-189 -586 -190 -259 -1 -309 -4 -365 -19 -91 -26 -172 -72 -246 -139 -84 -76
-116 -85 -247 -70 -56 7 -149 24 -207 37 -130 30 -271 33 -374 6 l-68 -18 -23
51 c-44 99 -52 88 97 129 369 101 716 157 1098 177 392 20 500 40 625 115 78
47 111 79 202 198 76 98 123 136 195 158 18 6 110 15 203 20 94 5 202 15 240
22 82 14 80 15 90 -85z m-2975 -570 c21 -89 70 -218 120 -318 140 -279 377
-530 639 -677 l85 -48 -175 -56 c-306 -100 -566 -146 -764 -135 -122 6 -185
20 -261 59 -54 27 -109 82 -126 126 -78 202 58 574 351 960 47 62 90 119 96
127 16 23 22 16 35 -38z"/>
<path d="M505 3815 c-16 -15 -25 -35 -25 -56 0 -122 -117 -239 -239 -239 -42
0 -81 -38 -81 -80 0 -42 39 -80 81 -80 122 0 239 -117 239 -239 0 -42 38 -81
80 -81 42 0 80 39 80 81 0 122 117 239 239 239 42 0 81 38 81 80 0 42 -39 80
-81 80 -122 0 -239 117 -239 239 0 42 -38 81 -80 81 -19 0 -40 -9 -55 -25z
m93 -335 l40 -40 -39 -39 -39 -39 -39 39 -39 39 37 39 c20 21 37 39 37 40 1 0
20 -17 42 -39z"/>
<path d="M4505 2295 c-16 -15 -25 -35 -25 -56 0 -122 -117 -239 -239 -239 -42
0 -81 -38 -81 -80 0 -42 39 -80 81 -80 122 0 239 -117 239 -239 0 -42 38 -81
80 -81 42 0 80 39 80 81 0 122 117 239 239 239 42 0 81 38 81 80 0 42 -39 80
-81 80 -122 0 -239 117 -239 239 0 42 -38 81 -80 81 -19 0 -40 -9 -55 -25z
m93 -335 l40 -40 -39 -39 -39 -39 -39 39 -39 39 37 39 c20 21 37 39 37 40 1 0
20 -17 42 -39z"/>
<path d="M4020 1425 c-175 -38 -346 -172 -428 -335 -95 -191 -95 -389 0 -580
84 -167 251 -296 434 -335 450 -95 854 309 759 759 -73 343 -418 565 -765 491z
m250 -161 c76 -17 165 -66 223 -122 48 -46 83 -102 70 -111 -5 -3 -26 -17 -47
-30 l-37 -23 -107 71 c-59 39 -117 71 -128 71 -26 0 -282 -86 -299 -100 -8 -6
-30 -60 -50 -120 l-36 -108 -52 -6 c-29 -4 -69 -10 -89 -13 l-38 -6 0 37 c0
66 30 173 66 233 69 114 172 193 293 225 83 21 144 22 231 2z m78 -396 c65
-42 114 -68 131 -68 16 0 55 18 89 39 l60 40 7 -39 c6 -38 -2 -125 -14 -146
-11 -20 -195 23 -282 66 -43 22 -90 40 -104 40 -43 0 -70 -39 -109 -156 l-36
-110 -102 -57 c-63 -35 -108 -55 -119 -52 -24 8 -98 92 -127 142 l-22 41 87
12 c177 24 175 22 226 176 l33 98 80 27 c43 14 84 24 89 21 6 -3 57 -37 113
-74z m-10 -287 c20 -10 75 -26 121 -35 46 -8 86 -18 89 -21 11 -10 -116 -124
-167 -149 -63 -32 -160 -56 -226 -55 -92 1 -93 10 -8 59 l78 45 30 88 c16 48
33 87 38 87 4 0 24 -9 45 -19z"/>
<path d="M2320 800 l0 -80 -80 0 -80 0 0 -80 0 -80 80 0 80 0 0 -80 0 -80 80
0 80 0 0 80 0 80 80 0 80 0 0 80 0 80 -80 0 -80 0 0 80 0 80 -80 0 -80 0 0
-80z m160 -160 l0 -80 -80 0 -80 0 0 80 0 80 80 0 80 0 0 -80z"/>
<path d="M1520 640 l0 -80 80 0 80 0 0 80 0 80 -80 0 -80 0 0 -80z"/>
<path d="M2960 400 l0 -80 80 0 80 0 0 80 0 80 -80 0 -80 0 0 -80z"/>
</g>
</svg>
